<?xml version="1.0" encoding="UTF-8"?>
<svg width="927px" height="207px" viewBox="0 0 927 207" version="1.1" xmlns="http://www.w3.org/2000/svg" xmlns:xlink="http://www.w3.org/1999/xlink">
    <title>education_logo</title>
    <g id="education_logo" stroke="none" stroke-width="1" fill="none" fill-rule="evenodd">
        <g id="Group" fill="#5F5F5F">
            <path d="M415,79.08 L447.904,79.08 L447.904,88.08 L426.664,88.08 L426.664,98.52 L445.096,98.52 L445.096,107.592 L426.664,107.592 L426.664,118.104 L447.904,118.104 L447.904,127.104 L415,127.104 L415,79.08 Z M472.096001,79.08 L491.392001,79.08 C499.456041,79.08 505.431981,81.08398 509.320001,85.092 C513.20802,89.10002 515.152001,95.1119599 515.152001,103.128 C515.152001,111.09604 513.20802,117.08398 509.320001,121.092 C505.431981,125.10002 499.456041,127.104 491.392001,127.104 L472.096001,127.104 L472.096001,79.08 Z M490.024001,118.104 C494.392022,118.104 497.67999,116.880012 499.888001,114.432 C502.096012,111.983988 503.200001,108.216025 503.200001,103.128 C503.200001,97.9439741 502.096012,94.1400121 499.888001,91.716 C497.67999,89.2919879 494.392022,88.08 490.024001,88.08 L483.760001,88.08 L483.760001,118.104 L490.024001,118.104 Z M559.792001,128.616 C552.351964,128.616 546.808019,127.032016 543.160001,123.864 C539.511983,120.695984 537.688001,115.800033 537.688001,109.176 L537.688001,79.08 L549.856001,79.08 L549.856001,108.672 C549.856001,112.368018 550.599994,115.103991 552.088001,116.88 C553.576009,118.656009 555.951985,119.544 559.216001,119.544 C562.240016,119.544 564.567993,118.632009 566.200001,116.808 C567.832009,114.983991 568.648001,112.272018 568.648001,108.672 L568.648001,79.08 L579.736001,79.08 L579.736001,109.176 C579.736001,115.656032 577.948019,120.515984 574.372001,123.756 C570.795983,126.996016 565.936032,128.616 559.792001,128.616 Z M625.600002,128.04 C609.855923,128.04 601.984002,119.736083 601.984002,103.128 C601.984002,86.3759162 609.855923,78 625.600002,78 C630.448026,78 635.535975,79.1759882 640.864002,81.528 L640.864002,91.68 C636.255979,88.6079846 631.696024,87.072 627.184002,87.072 C622.76798,87.072 619.468013,88.3079876 617.284002,90.78 C615.099991,93.2520124 614.008002,97.3679712 614.008002,103.128 C614.008002,108.888029 615.123991,112.967988 617.356002,115.368 C619.588013,117.768012 623.031978,118.968 627.688002,118.968 C629.608011,118.968 631.69599,118.608004 633.952002,117.888 C636.208013,117.167996 638.51199,116.040008 640.864002,114.504 L640.864002,124.656 C638.895992,125.664005 636.496016,126.479997 633.664002,127.104 C630.831988,127.728003 628.144014,128.04 625.600002,128.04 Z M692.344002,116.736 L674.416002,116.736 L670.960002,127.104 L659.944002,127.104 L678.088002,79.08 L690.832002,79.08 L707.824002,127.104 L695.872002,127.104 L692.344002,116.736 Z M689.464002,108.168 L683.344002,90.024 L677.296002,108.168 L689.464002,108.168 Z M734.032003,88.08 L720.568003,88.08 L720.568003,79.08 L759.376003,79.08 L759.376003,88.08 L745.696003,88.08 L745.696003,127.104 L734.032003,127.104 L734.032003,88.08 Z M780.616003,79.08 L792.280003,79.08 L792.280003,127.104 L780.616003,127.104 L780.616003,79.08 Z M838.288004,128.112 C830.943967,128.112 825.208025,126.024021 821.080004,121.848 C816.951983,117.671979 814.888004,111.432042 814.888004,103.128 C814.888004,94.9679592 816.915984,88.7640212 820.972004,84.516 C825.028024,80.2679788 830.799967,78.144 838.288004,78.144 C845.632041,78.144 851.379983,80.2199792 855.532004,84.372 C859.684025,88.5240208 861.760004,94.7519585 861.760004,103.056 C861.760004,111.216041 859.732024,117.431979 855.676004,121.704 C851.619984,125.976021 845.824042,128.112 838.288004,128.112 Z M838.288004,118.536 C842.080023,118.536 844.935994,117.336012 846.856004,114.936 C848.776014,112.535988 849.736004,108.576028 849.736004,103.056 C849.736004,97.5359724 848.788013,93.5880119 846.892004,91.212 C844.995995,88.8359881 842.128023,87.648 838.288004,87.648 C834.495985,87.648 831.652013,88.847988 829.756004,91.248 C827.859995,93.648012 826.912004,97.6319722 826.912004,103.2 C826.912004,108.672027 827.859995,112.595988 829.756004,114.972 C831.652013,117.348012 834.495985,118.536 838.288004,118.536 Z M926.272005,79.08 L926.272005,127.104 L917.488005,127.104 L895.096005,97.872 L895.096005,127.104 L884.368005,127.104 L884.368005,79.08 L894.304005,79.08 L915.544005,107.664 L915.544005,79.08 L926.272005,79.08 Z" id="EDUCATION"></path>
            <g id="EDUCATION_icon">
                <g>
                    <polygon id="Path" points="182.51497 0.358885017 3.23353293 70.3414634 182.51497 125.968641 359.640719 70.3414634"></polygon>
                    <path d="M74.7305389,108.02439 L74.7305389,179.442509 C98.4431138,196.908246 134.131737,205.641115 181.796407,205.641115 C229.461078,205.641115 265.149701,196.908246 288.862275,179.442509 L288.862275,108.02439 L181.796407,139.965157 L74.7305389,108.02439 Z" id="Path-2"></path>
                    <path d="M50.6586826,82.184669 C42.5127433,82.6164752 36.2851984,89.9138039 31.9760479,104.076655 C25.5123221,125.320932 30.0011194,140.859015 24.4311377,157.550523 C20.7178166,168.678195 12.574104,179.325117 0,189.491289 L17.6047904,198.10453 C30.8673389,191.002825 39.370333,180.236274 43.1137725,165.804878 C48.7289317,144.157784 46.1561812,118.602628 47.7844311,106.229965 C48.8699311,97.9815232 54.1393922,91.2823362 63.5928144,86.1324042 L50.6586826,82.184669 Z" id="Path-3"></path>
                    <ellipse id="Oval" cx="34.8502994" cy="134.581882" rx="16.1676647" ry="16.1498258"></ellipse>
                </g>
            </g>
        </g>
    </g>
</svg>