<svg xmlns="http://www.w3.org/2000/svg" width="186" height="40" viewBox="0 0 371.9 80">
  <defs>
    <style>
      .a {
        fill: #35d400;
      }
    </style>
  </defs>
  <title>logo</title>
  <g>
    <path d="M125.4,275.42a21.55,21.55,0,0,1-1.75,8.66,22.25,22.25,0,0,1-11.8,11.82,21.5,21.5,0,0,1-8.65,1.75H81a1.23,1.23,0,0,1-1.15-.6,2.56,2.56,0,0,1-.35-1.3v-74.9H72.9v75.4a1.27,1.27,0,0,1-.55,1.1,1.91,1.91,0,0,1-1.15.4,1.6,1.6,0,0,1-1.1-.45,1.38,1.38,0,0,1-.5-1.05v-77c0-1,.53-1.5,1.6-1.5h30.1a19.2,19.2,0,0,1,7.55,1.5,18.73,18.73,0,0,1,6.15,4.14,20.53,20.53,0,0,1,4.15,6.14A18.28,18.28,0,0,1,120.7,237a19,19,0,0,1-2.85,10.14,18.13,18.13,0,0,1-7.95,7,22.59,22.59,0,0,1,6.3,3.21,21.49,21.49,0,0,1,4.9,4.9,24.37,24.37,0,0,1,3.15,6.16A21.27,21.27,0,0,1,125.4,275.42Zm-7.8-38.37a15.33,15.33,0,0,0-1.3-6.31,16.57,16.57,0,0,0-8.65-8.6,15.67,15.67,0,0,0-6.35-1.29H82.4v32.3h18.9a15.78,15.78,0,0,0,6.3-1.29,16.43,16.43,0,0,0,8.7-8.6A15.07,15.07,0,0,0,117.6,237.05Zm4.7,38.4a18.58,18.58,0,0,0-1.5-7.4,19.1,19.1,0,0,0-10.2-10.2,18.58,18.58,0,0,0-7.4-1.5c-.27,0-.43,0-.5-.1H82.4v38.4h20.8a18.47,18.47,0,0,0,7.45-1.5A19.23,19.23,0,0,0,120.8,283,18.81,18.81,0,0,0,122.3,275.45Z" transform="translate(-69.6 -217.75)"/>
    <path d="M150.9,296.25a1.34,1.34,0,0,1-.5,1.1,1.7,1.7,0,0,1-1.1.4,1.54,1.54,0,0,1-1.5-1.5v-77a1.54,1.54,0,0,1,1.5-1.5,1.7,1.7,0,0,1,1.1.4,1.34,1.34,0,0,1,.5,1.1Z" transform="translate(-69.6 -217.75)"/>
    <path class="a" d="M238.2,286.45a1.64,1.64,0,0,1-.5,1.2,35,35,0,0,1-12.4,7.6,41.87,41.87,0,0,1-14.2,2.5,39,39,0,0,1-15.6-3.15,39.94,39.94,0,0,1-21.25-21.25,40.2,40.2,0,0,1,0-31.2A39.94,39.94,0,0,1,195.5,220.9a39,39,0,0,1,15.6-3.15,41.42,41.42,0,0,1,14.15,2.5,35.19,35.19,0,0,1,12.35,7.6,1.67,1.67,0,0,1,.6,1.1,1.82,1.82,0,0,1-.5,1.25,1.55,1.55,0,0,1-1.2.55,1.45,1.45,0,0,1-1-.5,44,44,0,0,0-11.3-6.95,33.9,33.9,0,0,0-13.1-2.45,35.67,35.67,0,0,0-14.3,2.9,37.45,37.45,0,0,0-19.7,19.7,36.71,36.71,0,0,0,0,28.6,37.45,37.45,0,0,0,19.7,19.7,36.26,36.26,0,0,0,27,.55,40.18,40.18,0,0,0,11.25-6.55l.1-21.2H197.1a1.48,1.48,0,0,1-1.15-.5,1.72,1.72,0,0,1-.45-1.2,1.6,1.6,0,0,1,.45-1.1,1.48,1.48,0,0,1,1.15-.5h39.6c1.07,0,1.6.57,1.6,1.7Zm-.4-33.4a1.7,1.7,0,0,1-.4,1.1,1.34,1.34,0,0,1-1.1.5h-39a1.41,1.41,0,0,1-1.6-1.6,1.34,1.34,0,0,1,.5-1.1,1.7,1.7,0,0,1,1.1-.4h39a1.54,1.54,0,0,1,1.5,1.5Z" transform="translate(-69.6 -217.75)"/>
    <path class="a" d="M317.5,286.45a1.64,1.64,0,0,1-.5,1.2,35,35,0,0,1-12.4,7.6,41.87,41.87,0,0,1-14.2,2.5,39,39,0,0,1-15.6-3.15,39.94,39.94,0,0,1-21.25-21.25,40.2,40.2,0,0,1,0-31.2A39.94,39.94,0,0,1,274.8,220.9a39,39,0,0,1,15.6-3.15,41.42,41.42,0,0,1,14.15,2.5,35.19,35.19,0,0,1,12.35,7.6,1.67,1.67,0,0,1,.6,1.1,1.82,1.82,0,0,1-.5,1.25,1.55,1.55,0,0,1-1.2.55,1.45,1.45,0,0,1-1-.5,44,44,0,0,0-11.3-6.95,33.9,33.9,0,0,0-13.1-2.45,35.67,35.67,0,0,0-14.3,2.9,37.45,37.45,0,0,0-19.7,19.7,36.71,36.71,0,0,0,0,28.6,37.45,37.45,0,0,0,19.7,19.7,36.26,36.26,0,0,0,27,.55,40.18,40.18,0,0,0,11.25-6.55l.1-21.2H276.4a1.48,1.48,0,0,1-1.15-.5,1.72,1.72,0,0,1-.45-1.2,1.6,1.6,0,0,1,.45-1.1,1.48,1.48,0,0,1,1.15-.5H316c1.07,0,1.6.57,1.6,1.7Zm-.4-33.4a1.7,1.7,0,0,1-.4,1.1,1.34,1.34,0,0,1-1.1.5h-39a1.41,1.41,0,0,1-1.6-1.6,1.34,1.34,0,0,1,.5-1.1,1.7,1.7,0,0,1,1.1-.4h39a1.54,1.54,0,0,1,1.5,1.5Z" transform="translate(-69.6 -217.75)"/>
    <path d="M382.8,296.05a1.91,1.91,0,0,1-.4,1.15,1.28,1.28,0,0,1-1.1.55H332.25a1.57,1.57,0,0,1-1.19-.5,1.68,1.68,0,0,1-.46-1.2v-76.8a1.3,1.3,0,0,1,.52-1.1,1.78,1.78,0,0,1,1.13-.4H381.3a1.42,1.42,0,0,1,1.05.47,1.49,1.49,0,0,1,.45,1.08,1.53,1.53,0,0,1-.45,1.09,1.41,1.41,0,0,1-1.05.46H333.7v30.9h37.1a1.42,1.42,0,0,1,1.05.47,1.49,1.49,0,0,1,.45,1.08,1.53,1.53,0,0,1-.45,1.09,1.41,1.41,0,0,1-1.05.46H333.9l-.1,6.9h37.4a1.39,1.39,0,0,1,1.6,1.55,1.49,1.49,0,0,1-.5,1.07,1.55,1.55,0,0,1-1.1.48H333.7v29.5h47.6a1.32,1.32,0,0,1,1.05.55A1.8,1.8,0,0,1,382.8,296.05Z" transform="translate(-69.6 -217.75)"/>
    <path d="M441.5,235.55a18.53,18.53,0,0,1-1.2,6.65,17.79,17.79,0,0,1-8.35,9.55,19,19,0,0,1-6.45,2.1,5.19,5.19,0,0,1-1.05.1H406l-.1,6.7h18.3a1.55,1.55,0,0,1,1.4.9c.2.53.73,1.73,1.6,3.6l3.05,6.6c1.16,2.53,2.4,5.2,3.7,8s2.5,5.4,3.6,7.8,2,4.42,2.75,6.05a16.7,16.7,0,0,1,1.1,2.75,1.2,1.2,0,0,1-.5,1,1.92,1.92,0,0,1-1.1.35,1.41,1.41,0,0,1-1.4-.9l-15.2-33.1H405.6v32a1.34,1.34,0,0,1-.5,1.1,1.72,1.72,0,0,1-1.1.4,1.54,1.54,0,0,1-1.5-1.5v-74.9H396v75.4a1.33,1.33,0,0,1-.5,1.1,1.72,1.72,0,0,1-1.1.4,1.54,1.54,0,0,1-1.5-1.5v-77a1.33,1.33,0,0,1,1.5-1.5h29a18.58,18.58,0,0,1,7.1,1.35,17.53,17.53,0,0,1,11,16.45Zm-3.1,0a14,14,0,0,0-1.2-5.78,15.12,15.12,0,0,0-3.25-4.68A15.3,15.3,0,0,0,429.2,222a14.61,14.61,0,0,0-5.8-1.15H405.6v30h17.8a14.51,14.51,0,0,0,5.85-1.2,15.06,15.06,0,0,0,4.8-3.28,15.52,15.52,0,0,0,3.2-4.84A15.29,15.29,0,0,0,438.4,235.6Z" transform="translate(-69.6 -217.75)"/>
  </g>
</svg>
